<?xml version="1.0" standalone="no"?>
<!DOCTYPE svg PUBLIC "-//W3C//DTD SVG 20010904//EN"
 "http://www.w3.org/TR/2001/REC-SVG-20010904/DTD/svg10.dtd">
<svg version="1.0" xmlns="http://www.w3.org/2000/svg"
 width="512.000000pt" height="512.000000pt" viewBox="0 0 512.000000 512.000000"
 preserveAspectRatio="xMidYMid meet">
<metadata>
Created by potrace 1.11, written by Peter Selinger 2001-2013
</metadata>
<g transform="translate(0.000000,512.000000) scale(0.100000,-0.100000)"
fill="#000000" stroke="none">
<path d="M422 5100 c-93 -26 -166 -67 -238 -135 -72 -68 -115 -131 -153 -225
l-26 -65 -3 -2086 c-2 -2065 -2 -2086 18 -2164 23 -88 77 -188 139 -252 37
-38 133 -113 146 -113 3 0 24 -9 48 -19 23 -10 66 -23 95 -29 32 -6 839 -10
2107 -11 1829 -1 2061 0 2121 14 71 16 181 66 200 91 6 7 13 12 16 9 8 -8 113
108 146 162 17 29 42 81 54 115 l23 63 0 2105 c0 2007 -1 2107 -18 2155 -26
72 -68 155 -78 155 -5 0 -9 6 -9 13 0 15 -113 127 -129 127 -6 0 -11 4 -11 8
0 11 -51 39 -127 70 l-68 27 -2095 1 c-1978 2 -2099 1 -2158 -16z"/>
</g>
</svg>
